<mxfile host="65bd71144e">
    <diagram id="XUK8JVPKhRmgs7JdHlXb" name="Architecture v1">
        <mxGraphModel dx="1984" dy="603" grid="1" gridSize="10" guides="1" tooltips="1" connect="1" arrows="1" fold="1" page="1" pageScale="1" pageWidth="1100" pageHeight="850" math="0" shadow="0">
            <root>
                <mxCell id="0"/>
                <mxCell id="1" parent="0"/>
                <mxCell id="DhfIBblm05DHXaujqNXp-21" value="Azure" style="rounded=0;whiteSpace=wrap;html=1;fontSize=12;fillColor=none;align=left;verticalAlign=top;spacingLeft=10;fontStyle=1" parent="1" vertex="1">
                    <mxGeometry x="280" y="120" width="520" height="450" as="geometry"/>
                </mxCell>
                <mxCell id="DhfIBblm05DHXaujqNXp-10" value="Request SPA from&lt;br&gt;(https)" style="edgeStyle=orthogonalEdgeStyle;rounded=0;orthogonalLoop=1;jettySize=auto;html=1;" parent="1" source="DhfIBblm05DHXaujqNXp-5" target="DhfIBblm05DHXaujqNXp-9" edge="1">
                    <mxGeometry x="-0.1667" relative="1" as="geometry">
                        <Array as="points">
                            <mxPoint x="130" y="190"/>
                            <mxPoint x="130" y="190"/>
                        </Array>
                        <mxPoint as="offset"/>
                    </mxGeometry>
                </mxCell>
                <mxCell id="DhfIBblm05DHXaujqNXp-14" value="Request images from&lt;br&gt;(https)" style="edgeStyle=orthogonalEdgeStyle;rounded=0;orthogonalLoop=1;jettySize=auto;html=1;entryX=0;entryY=0.5;entryDx=0;entryDy=0;" parent="1" target="DhfIBblm05DHXaujqNXp-13" edge="1">
                    <mxGeometry x="-0.1667" relative="1" as="geometry">
                        <Array as="points">
                            <mxPoint x="140" y="445"/>
                            <mxPoint x="140" y="445"/>
                        </Array>
                        <mxPoint as="offset"/>
                        <mxPoint x="80" y="445" as="sourcePoint"/>
                    </mxGeometry>
                </mxCell>
                <mxCell id="DhfIBblm05DHXaujqNXp-5" value="Browser" style="rounded=0;whiteSpace=wrap;html=1;align=left;verticalAlign=top;spacingLeft=10;spacingTop=4;fillColor=none;fontSize=12;fontStyle=1" parent="1" vertex="1">
                    <mxGeometry x="-120" y="120" width="200" height="340" as="geometry"/>
                </mxCell>
                <mxCell id="DhfIBblm05DHXaujqNXp-1" value="User" style="sketch=0;outlineConnect=0;fontColor=#232F3E;gradientColor=none;strokeColor=#232F3E;fillColor=#ffffff;dashed=0;verticalLabelPosition=bottom;verticalAlign=top;align=center;html=1;fontSize=12;fontStyle=0;aspect=fixed;shape=mxgraph.aws4.resourceIcon;resIcon=mxgraph.aws4.user;" parent="1" vertex="1">
                    <mxGeometry x="-180" y="265" width="50" height="50" as="geometry"/>
                </mxCell>
                <mxCell id="DhfIBblm05DHXaujqNXp-12" value="Reads data from&lt;br&gt;Writes data to&lt;br&gt;(tcp)" style="rounded=0;orthogonalLoop=1;jettySize=auto;html=1;entryX=0;entryY=0.5;entryDx=0;entryDy=0;edgeStyle=orthogonalEdgeStyle;exitX=1;exitY=0.25;exitDx=0;exitDy=0;" parent="1" source="DhfIBblm05DHXaujqNXp-2" target="DhfIBblm05DHXaujqNXp-18" edge="1">
                    <mxGeometry x="0.2982" relative="1" as="geometry">
                        <mxPoint x="670" y="480" as="targetPoint"/>
                        <Array as="points">
                            <mxPoint x="540" y="275"/>
                            <mxPoint x="540" y="190"/>
                        </Array>
                        <mxPoint as="offset"/>
                    </mxGeometry>
                </mxCell>
                <mxCell id="DhfIBblm05DHXaujqNXp-19" value="Writes images to&lt;br&gt;(https)" style="rounded=0;orthogonalLoop=1;jettySize=auto;html=1;entryX=0;entryY=0.75;entryDx=0;entryDy=0;exitX=1;exitY=0.75;exitDx=0;exitDy=0;" parent="1" source="DhfIBblm05DHXaujqNXp-2" target="DhfIBblm05DHXaujqNXp-17" edge="1">
                    <mxGeometry relative="1" as="geometry">
                        <mxPoint as="offset"/>
                    </mxGeometry>
                </mxCell>
                <mxCell id="3" style="edgeStyle=none;html=1;exitX=0.5;exitY=1;exitDx=0;exitDy=0;entryX=0;entryY=0.5;entryDx=0;entryDy=0;rounded=0;" edge="1" parent="1" source="DhfIBblm05DHXaujqNXp-2" target="2">
                    <mxGeometry relative="1" as="geometry">
                        <Array as="points">
                            <mxPoint x="380" y="370"/>
                        </Array>
                    </mxGeometry>
                </mxCell>
                <mxCell id="4" value="Reads DB connection string from" style="edgeLabel;html=1;align=center;verticalAlign=middle;resizable=0;points=[];" vertex="1" connectable="0" parent="3">
                    <mxGeometry x="-0.1521" relative="1" as="geometry">
                        <mxPoint x="-18" as="offset"/>
                    </mxGeometry>
                </mxCell>
                <mxCell id="DhfIBblm05DHXaujqNXp-2" value="REST API&lt;br&gt;&lt;font style=&quot;font-size: 10px;&quot;&gt;(App Service)&lt;/font&gt;" style="rounded=0;whiteSpace=wrap;html=1;" parent="1" vertex="1">
                    <mxGeometry x="320" y="260" width="120" height="60" as="geometry"/>
                </mxCell>
                <mxCell id="DhfIBblm05DHXaujqNXp-3" value="Makes API calls to&lt;br&gt;(https)" style="edgeStyle=orthogonalEdgeStyle;rounded=0;orthogonalLoop=1;jettySize=auto;html=1;exitX=1;exitY=0.5;exitDx=0;exitDy=0;" parent="1" source="DhfIBblm05DHXaujqNXp-4" target="DhfIBblm05DHXaujqNXp-2" edge="1">
                    <mxGeometry relative="1" as="geometry">
                        <mxPoint as="offset"/>
                    </mxGeometry>
                </mxCell>
                <mxCell id="DhfIBblm05DHXaujqNXp-4" value="SPA&lt;br&gt;(PWA)" style="rounded=0;whiteSpace=wrap;html=1;" parent="1" vertex="1">
                    <mxGeometry x="-80" y="260" width="120" height="60" as="geometry"/>
                </mxCell>
                <mxCell id="DhfIBblm05DHXaujqNXp-9" value="Static Web Server&lt;br&gt;&lt;font style=&quot;font-size: 10px;&quot;&gt;(App Service)&lt;/font&gt;" style="rounded=0;whiteSpace=wrap;html=1;fillColor=none;" parent="1" vertex="1">
                    <mxGeometry x="320" y="160" width="120" height="60" as="geometry"/>
                </mxCell>
                <mxCell id="DhfIBblm05DHXaujqNXp-20" value="Reads images from&lt;br&gt;(https)" style="rounded=0;orthogonalLoop=1;jettySize=auto;html=1;entryX=0.5;entryY=1;entryDx=0;entryDy=0;edgeStyle=orthogonalEdgeStyle;" parent="1" source="DhfIBblm05DHXaujqNXp-13" target="DhfIBblm05DHXaujqNXp-17" edge="1">
                    <mxGeometry x="-0.3939" relative="1" as="geometry">
                        <mxPoint as="offset"/>
                        <mxPoint x="700" y="375" as="targetPoint"/>
                    </mxGeometry>
                </mxCell>
                <mxCell id="DhfIBblm05DHXaujqNXp-13" value="CDN&lt;br&gt;&lt;font style=&quot;font-size: 10px;&quot;&gt;(Azure CDN)&lt;/font&gt;" style="rounded=0;whiteSpace=wrap;html=1;fillColor=none;" parent="1" vertex="1">
                    <mxGeometry x="320" y="415" width="120" height="60" as="geometry"/>
                </mxCell>
                <mxCell id="DhfIBblm05DHXaujqNXp-17" value="Blob storage&lt;br&gt;&lt;font style=&quot;font-size: 10px;&quot;&gt;(Storage Account)&lt;/font&gt;" style="rounded=0;whiteSpace=wrap;html=1;fillColor=none;" parent="1" vertex="1">
                    <mxGeometry x="640" y="260" width="120" height="60" as="geometry"/>
                </mxCell>
                <mxCell id="DhfIBblm05DHXaujqNXp-18" value="Database&lt;br&gt;&lt;font style=&quot;font-size: 10px;&quot;&gt;(SQL Azure)&lt;/font&gt;" style="rounded=0;whiteSpace=wrap;html=1;fillColor=none;" parent="1" vertex="1">
                    <mxGeometry x="640" y="160" width="120" height="60" as="geometry"/>
                </mxCell>
                <mxCell id="2" value="Key Vault&lt;br&gt;(Azure Key Vault)" style="rounded=0;whiteSpace=wrap;html=1;" vertex="1" parent="1">
                    <mxGeometry x="480" y="340" width="120" height="60" as="geometry"/>
                </mxCell>
            </root>
        </mxGraphModel>
    </diagram>
</mxfile>